PathFileType	4	(X/Y/Z)	Patient4_TMGait_0pt5_01_left_01.trc.trc
DataRate	CameraRate	NumFrames	NumMarkers	Units	OrigDataRate	OrigDataStartFrame	OrigNumFrames
73.684210526316	73.684210526316	7	33	mm	73.684210526316	89	       141
Frame#	Time	L.ASIS			Sacral			L.Shoulder			Chest			R.Shoulder			Neck			R.ASIS			R.Thigh.Superior			R.Thigh.Lateral			R.Thigh.Inferior			R.Patella			L.Thigh.Superior			L.Thigh.Lateral			L.Thigh.Inferior			L.Patella			L.Shank.Superior			L.Shank.Lateral			L.Shank.Inferior			R.Shank.Superior			R.Shank.Lateral			R.Shank.Inferior			R.Heel			R.Midfoot.Superior			R.Midfoot.Lateral			R.Toe			L.Heel			L.Midfoot.Lateral			L.Midfoot.Superior			L.Toe			L.Elbow			L.Wrist			R.Elbow			R.Wrist			
		X1	Y1	Z1	X2	Y2	Z2	X3	Y3	Z3	X4	Y4	Z4	X5	Y5	Z5	X6	Y6	Z6	X7	Y7	Z7	X8	Y8	Z8	X9	Y9	Z9	X10	Y10	Z10	X11	Y11	Z11	X12	Y12	Z12	X13	Y13	Z13	X14	Y14	Z14	X15	Y15	Z15	X16	Y16	Z16	X17	Y17	Z17	X18	Y18	Z18	X19	Y19	Z19	X20	Y20	Z20	X21	Y21	Z21	X22	Y22	Z22	X23	Y23	Z23	X24	Y24	Z24	X25	Y25	Z25	X26	Y26	Z26	X27	Y27	Z27	X28	Y28	Z28	X29	Y29	Z29	X30	Y30	Z30	X31	Y31	Z31	X32	Y32	Z32	X33	Y33	Z33	

89	2.364285714286	781.625174967297	960.746905428342	336.738744548515	562.053943160749	995.112865900473	486.182449906037	720.688282624486	1430.752599960624	312.393254915838	813.402443799843	1368.509241165109	482.313869895132	710.560584472769	1438.149336098908	648.942357708518	703.805332210209	1492.654035247812	462.073505997684	789.446081359476	938.477019271070	610.804102633827	854.615307682716	749.861853544172	575.814325678620	787.441865305159	633.397023575664	636.935105047064	870.708721302485	589.072524779607	556.911648706864	881.963127518993	498.883050390920	564.282676020490	806.546912024636	735.826895194450	356.234587223295	704.684389705855	628.383519259894	296.969953042134	782.468531387066	538.982689042897	354.171947847003	771.329487420184	456.643599736108	354.549987210419	710.490080602450	397.933252467709	351.958166090111	576.923617996229	334.100904262507	306.334076153284	582.652546943866	207.698969961221	369.943172487787	857.622242088325	408.287711423633	573.443809519828	791.614662571616	301.804115727788	635.892407837172	839.262216435497	208.686489433105	575.836642203524	711.096836308689	42.112646028089	547.115796714564	881.312285874290	98.975574527050	583.116944531236	794.286948436548	36.365058898050	622.212723428198	1001.459809109889	49.152105754565	611.473022447446	405.775830791582	105.220589642506	415.354285720943	470.792958883912	73.277268244790	335.307293213600	569.490902614181	109.176052585208	353.453228197053	672.209746810077	34.027862055535	327.935926379443	763.840680371057	1084.589469421025	179.678341184368	969.585064569538	921.903154714560	188.773069296947	615.528431854678	1105.948452386870	757.622166099787	680.840952224982	852.842399391863	769.827383767149	
90	2.377857142857	780.566421812451	961.379675167304	338.473028473551	562.310706996759	996.057028415951	489.959029141782	719.656516331964	1432.072971631763	315.820096143194	814.289811075721	1369.034005509631	484.399696162639	713.660098651809	1438.395659043350	652.476220086785	704.637311044788	1493.423166173528	465.901314551458	790.784695951749	939.336224721978	612.391265787985	853.473308589199	749.000436467592	578.145404876838	784.841191018346	633.538893586088	638.967005306918	867.258844101062	588.341050302442	558.612396502882	877.273009625924	498.255321103275	565.588118481815	810.967025829653	738.037170373756	357.791508421666	713.052579142187	628.100607977900	298.086777193081	793.941881000538	540.222716335321	354.656282176533	783.821944066974	456.482250510321	354.078333454629	720.525593126577	398.140487629766	352.060824800220	584.593589829603	339.508124403561	306.638207983535	585.701661840793	212.947919744342	369.730550423713	852.616151863330	407.857433371556	574.642061084112	786.286928086969	301.535925346186	636.996520770242	833.196216304802	208.383857573900	576.399308356864	704.328560449913	42.085672833369	547.301343090700	874.623812179436	98.887883651038	583.397467745616	787.517566475720	36.332783204638	622.434240398425	994.716191364675	49.032651946322	611.660916978032	404.988598257210	119.313257824473	414.943804714010	468.099296137520	83.353601589986	335.063360934352	568.584205821864	113.872501184391	352.855579339045	666.197577974709	33.293842503930	327.906243101611	756.836192685801	1084.838498633544	183.477722504889	956.797583098866	914.633875244491	190.356907943583	622.812164038540	1105.448283074422	763.040012798052	695.822200647326	854.541666447326	774.387177490267	
91	2.391428571429	779.375283548967	961.782352679831	340.086113516098	562.355834729317	996.889615242883	493.569055951435	718.480128858189	1433.222358404275	319.080294862625	815.074628441144	1369.367966958698	486.282589151901	716.668436375420	1438.398592068504	655.772049341395	705.436220924803	1494.033648054168	469.588160598578	791.878888840660	940.064017921674	613.876808692746	852.109826725404	748.080007598449	580.457271564017	782.113743906455	633.603589905833	640.976315178294	863.679527556904	587.582024016620	560.279301301281	872.524482961106	497.603790176007	566.911720812957	815.490193862329	740.443964658756	359.375097002279	721.836421342517	628.050108873300	299.049698942853	805.720417928142	541.894757055398	355.191248241652	796.702529407370	456.808385878863	353.782361298735	731.169691749710	398.707092898727	352.176964438096	593.097338700772	345.242694991503	306.887418076509	589.565974957868	218.731106494737	369.575173534815	847.546898798765	407.391591806909	575.840353123406	780.892548646607	301.224955870673	638.054192961516	827.085883480760	208.040635260920	576.943773253534	697.500796752353	42.057631701977	547.477610371468	867.892865246224	98.726720496500	583.647478759573	780.686278775883	36.277702927713	622.644500084773	987.931162729464	48.769932557894	611.839942302591	405.309954278711	134.067963259943	414.583020363953	466.415652244369	94.320380896156	334.814022599010	568.494760368524	119.321288277257	352.380684438922	660.874670437307	32.772943353047	327.795470426884	749.296857293358	1085.017298319098	186.980482402473	943.230929450060	907.629852869876	191.880908267485	630.305113491648	1104.829461942190	768.550537599170	711.024601635719	856.355536112893	779.035456390027	
92	2.405000000000	778.095305431089	961.981486497055	341.592532504435	562.204340439663	997.607415110462	496.982931462557	717.190650909223	1434.190786499428	322.135819010186	815.750204509963	1369.526800881666	487.952988092573	719.540102817936	1438.186924287503	658.799205309277	706.205248143603	1494.498314262324	473.074928244019	792.729877934818	940.656714426902	615.288098552267	850.604092214786	747.159485109658	582.678088840421	779.368431899854	633.601010016061	642.914506727090	860.092182342062	586.818668500830	561.869100002095	867.836778916328	496.936372354210	568.201047251316	819.959933237429	743.059175391096	361.027572496016	730.802509686558	628.327126084014	299.892268347527	817.498587798407	544.060619110601	355.823192198152	809.694348703045	457.703485164243	353.683346833408	742.187375631032	399.696976023012	352.317192133084	602.217508002539	351.194784315710	307.123244414417	594.225025653546	224.880696685496	369.482969187449	842.515856920800	406.894817591155	576.989670239442	775.519372380010	300.893616211984	639.027889616260	820.991967785250	207.665718040882	577.442322044450	690.641335697848	42.037505896901	547.643468742222	861.138035312388	98.519872559273	583.859947599776	773.818461803446	36.214171344949	622.840597839672	981.126286341688	48.400739339854	612.012419537008	406.820238302365	148.897177273006	414.291987862270	465.926283238153	105.741666083918	334.566141722337	569.359711147940	125.348055008997	352.022140283298	656.609525592741	32.572878163725	327.572107911577	741.275562559525	1085.120449645200	190.205810832750	928.940779648358	900.878385016139	193.327539117311	638.063414467489	1104.083053806664	774.087970375340	726.399543248080	858.247228913914	783.704343672492	
93	2.418571428571	776.758483606890	962.036653736028	343.012577236059	561.878298632142	998.225625514404	500.187598959205	715.829547833454	1434.990299031216	324.959092838670	816.317052782908	1369.547508541889	489.411416880062	722.246028692980	1437.819695073982	661.542555725767	706.950314948739	1494.849325444144	476.308925235227	793.347796573433	941.126801706191	616.649940742256	849.021657847448	746.283634749559	584.753123439690	776.666332189660	633.541074792633	644.732077189837	856.574840199536	586.066395032521	563.343987089953	863.280534302985	496.261411118420	569.396753528522	824.223766867445	745.894296842054	362.782315142589	739.714877334235	629.012582888285	300.651749828599	828.992545334005	546.761619200326	356.577591158953	822.540723823161	459.227973773084	353.775013606502	753.362625440943	401.153235628301	352.483218427552	611.750230461426	357.208298458780	307.376992527529	599.688919739415	231.163402554958	369.444979949556	837.582597007990	406.377288321827	578.040608870460	770.218074442946	300.566434750696	639.883590923280	814.951477804856	207.273706980154	577.870580202063	683.773410670715	42.032812548283	547.797161907628	854.373315293267	98.293507693757	584.029741874846	766.936297599622	36.154316773725	623.019768722454	974.318493962402	47.968938655668	612.178898412572	409.603061291599	163.117617980854	414.078678001101	466.832095946291	117.066507708210	334.319205883517	571.359159657839	131.680460786712	351.753699268902	653.840190886490	32.782772166004	327.206411934268	732.838109568073	1085.166099852527	193.195168744714	913.975751559480	894.365386561049	194.680459865669	646.132202977936	1103.234967845016	779.571925164739	741.918319725255	860.218810368407	788.313778628073	
94	2.432142857143	775.380443846753	962.030056889541	344.368243960014	561.403892441229	998.774418134942	503.186262696703	714.443180847971	1435.648860824583	327.533650784732	816.782950432000	1369.480672907962	490.666997987693	724.775045886795	1437.376680524365	664.000024388087	707.677983200976	1495.130476993561	479.248925989986	793.749985457321	941.496877276525	617.978613116785	847.405851145507	745.478097963541	586.642717161716	774.023583793789	633.434675313971	646.383376348715	853.157381305744	585.333915127992	564.670368440341	858.874598848155	495.587347393102	570.440801158387	828.148721655559	748.954937345706	364.654901171752	748.351127006253	630.161788952409	301.366006730970	839.957567954789	550.010686397392	357.457852740745	835.014922285055	461.415086581278	354.033911254521	764.510645603855	403.090534431691	352.672699598250	621.523229152821	363.081743274883	307.665101689379	606.001611114727	237.292646100080	369.439105195449	832.763705647913	405.852945865673	578.949845017734	765.001544942258	300.266364921794	640.595960985045	808.976599692169	206.882104936354	578.210269756226	676.912661064337	42.048223848888	547.936380218550	847.607195398201	98.069185477189	584.153176590670	760.055915960429	36.106679426619	623.179279244648	967.518198386454	47.518692142551	612.337661859888	413.748829281057	176.001392449246	413.933009024800	469.344499870779	127.672301478960	334.061191000110	574.708092086502	137.967250231680	351.532617416997	653.049036779731	33.444817541271	326.671861094466	724.062766300521	1085.190173115495	196.005308644468	898.381298416365	888.083016631616	195.929703194629	654.534150068612	1102.343390988879	784.914286743126	757.568656124189	862.314086731288	792.771408817067	
95	2.445714285714	773.958422792249	962.052301890094	345.678709047832	560.808322856331	999.293804627567	505.995103786247	713.077542623040	1436.202872800239	329.853459042875	817.162481005581	1369.380791884606	491.734896287741	727.133877606190	1436.946690972379	666.179418165989	708.394133974851	1495.388722616893	481.868790003388	793.958390790379	941.792769033399	619.278360607037	845.772755985269	744.750150989834	588.316417647024	771.422231788078	633.294944241365	647.832369589629	849.824893055359	584.625367654266	565.818442550178	854.591298741809	494.922628698272	571.284826149390	831.633424596916	752.236718115271	366.637329310975	756.515586195526	631.796125619060	302.070668487008	850.197941747176	553.787069334480	358.448640736432	846.924402135988	464.266368162041	354.431526804231	775.482861976292	405.490863199403	352.884176378814	631.406014074559	368.577169863398	307.987815995282	613.236199161320	242.950181752731	369.433870428881	828.038459287708	405.337510389141	579.685018110816	759.851915023929	300.011729914481	641.152345228489	803.057982755000	206.508802416294	578.450780074791	670.066184911774	42.084544795200	548.058746777132	840.843246289358	97.862736228548	584.228661606843	753.186526046108	36.075773382544	623.316599614667	960.729232829930	47.089293155932	612.485080626900	419.356974099966	186.837081883249	413.823366500389	473.676084245805	136.921496866312	333.766081730483	579.640618758808	143.810524495981	351.305226105159	654.723538732535	34.529624998803	325.946817380700	715.040109700277	1085.238004815113	198.699556134185	882.205576663203	882.034133499812	197.074806477213	663.260669849453	1101.490641130371	790.027224067573	773.349117016984	864.616183138037	796.974274979371	
